<?xml version="1.0" encoding="UTF-8"?>
<!DOCTYPE svg PUBLIC "-//W3C//DTD SVG 1.1//EN" "http://www.w3.org/Graphics/SVG/1.1/DTD/svg11.dtd">
<svg xmlns="http://www.w3.org/2000/svg" version="1.1" width="128px" height="128px" style="shape-rendering:geometricPrecision; text-rendering:geometricPrecision; image-rendering:optimizeQuality; fill-rule:evenodd; clip-rule:evenodd" xmlns:xlink="http://www.w3.org/1999/xlink">
<g><path style="opacity:1" fill="#0d55b5" d="M 51.5,-0.5 C 55.5,-0.5 59.5,-0.5 63.5,-0.5C 63.5,4.16667 63.5,8.83333 63.5,13.5C 63.5,18.8333 63.5,24.1667 63.5,29.5C 63.5,29.8333 63.5,30.1667 63.5,30.5C 63.5,35.8333 63.5,41.1667 63.5,46.5C 63.5,52.1667 63.5,57.8333 63.5,63.5C 42.1667,63.5 20.8333,63.5 -0.5,63.5C -0.5,60.8333 -0.5,58.1667 -0.5,55.5C 0.806777,54.8466 2.14011,54.1799 3.5,53.5C 8.47351,57.695 9.47351,56.8617 6.5,51C 8.34916,49.907 10.0158,48.5737 11.5,47C 6.26488,47.8729 3.59822,45.7062 3.5,40.5C 3.6596,38.847 4.32627,37.5137 5.5,36.5C 6.45837,36.9528 7.2917,37.6195 8,38.5C 8.1805,36.5116 8.01383,34.5116 7.5,32.5C 7.32842,31.5084 7.66175,30.8417 8.5,30.5C 11.0606,28.8495 12.7273,26.5162 13.5,23.5C 15.7657,19.5644 18.7657,16.2311 22.5,13.5C 20.5978,18.4361 21.7644,19.4361 26,16.5C 27.982,16.9903 29.6487,17.9903 31,19.5C 31.0038,17.6316 30.5038,15.7983 29.5,14C 30.8582,12.3113 32.5249,10.978 34.5,10C 32.5273,9.50454 30.5273,9.33788 28.5,9.5C 35.5726,4.79695 43.2393,1.46362 51.5,-0.5 Z"/></g>
<g><path style="opacity:0.959" fill="#efeded" d="M 63.5,-0.5 C 67.5,-0.5 71.5,-0.5 75.5,-0.5C 86.0896,1.69397 95.4229,6.36063 103.5,13.5C 90.1667,13.5 76.8333,13.5 63.5,13.5C 63.5,8.83333 63.5,4.16667 63.5,-0.5 Z"/></g>
<g><path style="opacity:1" fill="#dfe4eb" d="M 48.5,3.5 C 49.7709,5.10858 50.7709,6.94192 51.5,9C 53.5,9.33333 55.5,9.66667 57.5,10C 55.6508,11.093 53.9842,12.4263 52.5,14C 53.6379,15.7343 54.1379,17.5676 54,19.5C 50.7865,15.5866 47.6198,15.5866 44.5,19.5C 44.1667,19.3333 43.8333,19.1667 43.5,19C 44.3578,17.43 45.0245,15.7633 45.5,14C 44.2011,12.6736 42.8678,11.3402 41.5,10C 43.4727,9.50454 45.4727,9.33788 47.5,9.5C 47.8333,7.5 48.1667,5.5 48.5,3.5 Z"/></g>
<g><path style="opacity:0.921" fill="#e5e8ed" d="M 28.5,9.5 C 30.5273,9.33788 32.5273,9.50454 34.5,10C 32.5249,10.978 30.8582,12.3113 29.5,14C 30.5038,15.7983 31.0038,17.6316 31,19.5C 29.6487,17.9903 27.982,16.9903 26,16.5C 21.7644,19.4361 20.5978,18.4361 22.5,13.5C 24.2279,11.7745 26.2279,10.4411 28.5,9.5 Z"/></g>
<g><path style="opacity:1" fill="#d80729" d="M 63.5,13.5 C 76.8333,13.5 90.1667,13.5 103.5,13.5C 109.219,16.885 113.552,21.5517 116.5,27.5C 99.1983,29.4863 81.5316,30.153 63.5,29.5C 63.5,24.1667 63.5,18.8333 63.5,13.5 Z"/></g>
<g><path style="opacity:1" fill="#dfe4eb" d="M 25.5,22.5 C 27.2798,23.9899 27.9465,25.9899 27.5,28.5C 34.3545,27.686 35.0212,29.0193 29.5,32.5C 30.9294,34.3313 31.4294,36.3313 31,38.5C 28.1531,34.1811 25.1531,33.8477 22,37.5C 22,35.5 22,33.5 22,31.5C 20.7453,30.7894 19.5786,29.956 18.5,29C 20.4727,28.5045 22.4727,28.3379 24.5,28.5C 24.5172,26.4352 24.8505,24.4352 25.5,22.5 Z"/></g>
<g><path style="opacity:1" fill="#dee4eb" d="M 48.5,22.5 C 50.0108,23.9575 51.0108,25.7908 51.5,28C 53.1667,28.3333 54.8333,28.6667 56.5,29C 55.3147,30.353 53.9814,31.5197 52.5,32.5C 53.9294,34.3313 54.4294,36.3313 54,38.5C 51.1531,34.1811 48.1531,33.8477 45,37.5C 45,35.5 45,33.5 45,31.5C 43.7453,30.7894 42.5786,29.956 41.5,29C 43.4727,28.5045 45.4727,28.3379 47.5,28.5C 47.5172,26.4352 47.8505,24.4352 48.5,22.5 Z"/></g>
<g><path style="opacity:1" fill="#7f9fd2" d="M 13.5,23.5 C 12.7273,26.5162 11.0606,28.8495 8.5,30.5C 9.43334,27.6298 11.1,25.2964 13.5,23.5 Z"/></g>
<g><path style="opacity:1" fill="#e26177" d="M 116.5,27.5 C 117.906,27.9731 118.573,28.9731 118.5,30.5C 100.167,30.5 81.8333,30.5 63.5,30.5C 63.5,30.1667 63.5,29.8333 63.5,29.5C 81.5316,30.153 99.1983,29.4863 116.5,27.5 Z"/></g>
<g><path style="opacity:0.991" fill="#f0f0f0" d="M 63.5,30.5 C 81.8333,30.5 100.167,30.5 118.5,30.5C 121.9,35.307 124.234,40.6403 125.5,46.5C 104.833,46.5 84.1667,46.5 63.5,46.5C 63.5,41.1667 63.5,35.8333 63.5,30.5 Z"/></g>
<g><path style="opacity:1" fill="#c6d3e5" d="M 7.5,32.5 C 8.01383,34.5116 8.1805,36.5116 8,38.5C 7.2917,37.6195 6.45837,36.9528 5.5,36.5C 5.22911,34.6203 5.89578,33.287 7.5,32.5 Z"/></g>
<g><path style="opacity:0.903" fill="#dfe4ec" d="M 3.5,40.5 C 3.59822,45.7062 6.26488,47.8729 11.5,47C 10.0158,48.5737 8.34916,49.907 6.5,51C 9.47351,56.8617 8.47351,57.695 3.5,53.5C 2.14011,54.1799 0.806777,54.8466 -0.5,55.5C -0.5,54.1667 -0.5,52.8333 -0.5,51.5C 0.679783,47.7831 2.01312,44.1165 3.5,40.5 Z"/></g>
<g><path style="opacity:1" fill="#d8dfe9" d="M 25.5,41.5 C 26.9473,42.6222 27.9473,44.1222 28.5,46C 30.5,46.3333 32.5,46.6667 34.5,47C 32.6508,48.093 30.9842,49.4263 29.5,51C 32.4735,56.8617 31.4735,57.695 26.5,53.5C 24.7419,54.1279 23.2419,55.1279 22,56.5C 21.3486,54.765 21.5153,53.0983 22.5,51.5C 21.2519,49.5414 19.5852,48.0414 17.5,47C 19.8098,46.5034 22.1432,46.3367 24.5,46.5C 24.6287,44.7839 24.962,43.1172 25.5,41.5 Z"/></g>
<g><path style="opacity:1" fill="#d7dee9" d="M 48.5,41.5 C 49.9473,42.6222 50.9473,44.1222 51.5,46C 53.5,46.3333 55.5,46.6667 57.5,47C 56.0158,48.5737 54.3492,49.907 52.5,51C 55.4735,56.8617 54.4735,57.695 49.5,53.5C 47.7419,54.1279 46.2419,55.1279 45,56.5C 44.3486,54.765 44.5153,53.0983 45.5,51.5C 44.2519,49.5414 42.5852,48.0414 40.5,47C 42.8098,46.5034 45.1432,46.3367 47.5,46.5C 47.6287,44.7839 47.962,43.1172 48.5,41.5 Z"/></g>
<g><path style="opacity:1" fill="#d80a2a" d="M 63.5,46.5 C 84.1667,46.5 104.833,46.5 125.5,46.5C 126.024,48.3057 126.691,49.9724 127.5,51.5C 127.5,55.5 127.5,59.5 127.5,63.5C 106.167,63.5 84.8333,63.5 63.5,63.5C 63.5,57.8333 63.5,52.1667 63.5,46.5 Z"/></g>
<g><path style="opacity:0.996" fill="#f0f0f0" d="M -0.5,63.5 C 20.8333,63.5 42.1667,63.5 63.5,63.5C 84.8333,63.5 106.167,63.5 127.5,63.5C 127.5,67.5 127.5,71.5 127.5,75.5C 126.833,76.8333 126.167,78.1667 125.5,79.5C 84.1667,79.5 42.8333,79.5 1.5,79.5C 0.833333,78.1667 0.166667,76.8333 -0.5,75.5C -0.5,71.5 -0.5,67.5 -0.5,63.5 Z"/></g>
<g><path style="opacity:1" fill="#eaadb7" d="M 1.5,79.5 C 42.8333,79.5 84.1667,79.5 125.5,79.5C 125.768,81.099 125.434,82.4324 124.5,83.5C 124.5,82.5 124.5,81.5 124.5,80.5C 83.8333,80.5 43.1667,80.5 2.5,80.5C 2.5,81.5 2.5,82.5 2.5,83.5C 1.56552,82.4324 1.23219,81.099 1.5,79.5 Z"/></g>
<g><path style="opacity:1" fill="#d80327" d="M 124.5,83.5 C 123.273,88.282 121.273,92.6153 118.5,96.5C 81.8333,96.5 45.1667,96.5 8.5,96.5C 5.72712,92.6153 3.72712,88.282 2.5,83.5C 2.5,82.5 2.5,81.5 2.5,80.5C 43.1667,80.5 83.8333,80.5 124.5,80.5C 124.5,81.5 124.5,82.5 124.5,83.5 Z"/></g>
<g><path style="opacity:0.99" fill="#f0eaea" d="M 8.5,96.5 C 45.1667,96.5 81.8333,96.5 118.5,96.5C 115.273,103.727 110.273,109.394 103.5,113.5C 76.8333,113.5 50.1667,113.5 23.5,113.5C 16.727,109.394 11.727,103.727 8.5,96.5 Z"/></g>
<g><path style="opacity:1" fill="#d9142e" d="M 23.5,113.5 C 50.1667,113.5 76.8333,113.5 103.5,113.5C 95.2302,120.302 85.8969,124.968 75.5,127.5C 67.5,127.5 59.5,127.5 51.5,127.5C 41.1031,124.968 31.7698,120.302 23.5,113.5 Z"/></g>
</svg>
