<?xml version="1.0" encoding="UTF-8"?>
<!DOCTYPE svg PUBLIC "-//W3C//DTD SVG 1.1//EN" "http://www.w3.org/Graphics/SVG/1.1/DTD/svg11.dtd">
<svg xmlns="http://www.w3.org/2000/svg" version="1.1" width="512px" height="512px" style="shape-rendering:geometricPrecision; text-rendering:geometricPrecision; image-rendering:optimizeQuality; fill-rule:evenodd; clip-rule:evenodd" xmlns:xlink="http://www.w3.org/1999/xlink">
<g><path style="opacity:0.998" fill="#53b799" d="M 86.5,-0.5 C 197.833,-0.5 309.167,-0.5 420.5,-0.5C 421.704,57.2441 412.537,113.244 393,167.5C 392.722,166.584 392.222,165.918 391.5,165.5C 390.319,137.409 388.153,109.409 385,81.5C 377.119,71.33 368.786,70.9967 360,80.5C 358.991,82.0249 358.491,83.6916 358.5,85.5C 357.833,112.5 357.167,139.5 356.5,166.5C 336.227,136.139 315.56,105.972 294.5,76C 283.389,70.9705 275.555,74.1371 271,85.5C 269.546,129.159 268.879,172.826 269,216.5C 273.048,229.438 281.214,232.938 293.5,227C 297.51,223.805 299.51,219.638 299.5,214.5C 300.167,193.5 300.833,172.5 301.5,151.5C 321.121,176.456 341.121,201.123 361.5,225.5C 343.308,252.858 320.308,275.358 292.5,293C 246.878,319.871 197.545,334.871 144.5,338C 122.18,339.069 99.8467,339.736 77.5,340C 52.8059,342.327 34.4726,354.16 22.5,375.5C 32.8492,261.826 43.3492,148.159 54,34.5C 57.5747,15.9698 68.408,4.30309 86.5,-0.5 Z"/></g>
<g><path style="opacity:1" fill="#4aaf8f" d="M 420.5,-0.5 C 426.833,-0.5 433.167,-0.5 439.5,-0.5C 449.247,2.75018 455.413,9.41684 458,19.5C 468.833,134.5 479.667,249.5 490.5,364.5C 489.9,377.414 483.233,384.414 470.5,385.5C 470.167,385.5 469.833,385.5 469.5,385.5C 330.165,385.167 190.832,385.5 51.5,386.5C 37.807,400.204 34.6404,416.204 42,434.5C 45.2788,442.443 50.1121,449.277 56.5,455C 63.1583,455.5 69.825,455.666 76.5,455.5C 77.0906,463.225 78.0906,470.892 79.5,478.5C 62.2962,481.155 47.7962,476.155 36,463.5C 24.9544,449.873 19.1211,434.206 18.5,416.5C 19.7684,402.816 21.1017,389.15 22.5,375.5C 34.4726,354.16 52.8059,342.327 77.5,340C 99.8467,339.736 122.18,339.069 144.5,338C 197.545,334.871 246.878,319.871 292.5,293C 320.308,275.358 343.308,252.858 361.5,225.5C 380.203,233.477 391.203,227.31 394.5,207C 393.147,193.19 392.147,179.357 391.5,165.5C 392.222,165.918 392.722,166.584 393,167.5C 412.537,113.244 421.704,57.2441 420.5,-0.5 Z"/></g>
<g><path style="opacity:1" fill="#febf5a" d="M 149.5,73.5 C 178.502,73.3334 207.502,73.5 236.5,74C 246.849,78.1989 249.349,85.3656 244,95.5C 241.749,97.3773 239.249,98.8773 236.5,100C 212.836,100.5 189.169,100.667 165.5,100.5C 164.806,112.528 163.806,124.528 162.5,136.5C 187.502,136.333 212.502,136.5 237.5,137C 245.192,139.882 248.026,145.382 246,153.5C 244.402,158.099 241.235,160.932 236.5,162C 210.502,162.5 184.502,162.667 158.5,162.5C 157.793,173.86 156.793,185.194 155.5,196.5C 181.502,196.333 207.502,196.5 233.5,197C 246.225,201.624 249.725,210.124 244,222.5C 241.738,225.431 238.905,227.597 235.5,229C 202.167,229.667 168.833,229.667 135.5,229C 124.443,223.048 120.277,213.882 123,201.5C 127.286,163.159 131.619,124.826 136,86.5C 139.101,80.5629 143.601,76.2296 149.5,73.5 Z"/></g>
<g><path style="opacity:1" fill="#febf5a" d="M 356.5,166.5 C 356.783,167.289 357.283,167.956 358,168.5C 358.5,140.835 358.667,113.169 358.5,85.5C 358.491,83.6916 358.991,82.0249 360,80.5C 368.786,70.9967 377.119,71.33 385,81.5C 388.153,109.409 390.319,137.409 391.5,165.5C 392.147,179.357 393.147,193.19 394.5,207C 391.203,227.31 380.203,233.477 361.5,225.5C 341.121,201.123 321.121,176.456 301.5,151.5C 301.44,150.957 301.107,150.624 300.5,150.5C 299.5,171.823 299.167,193.156 299.5,214.5C 299.51,219.638 297.51,223.805 293.5,227C 281.214,232.938 273.048,229.438 269,216.5C 268.879,172.826 269.546,129.159 271,85.5C 275.555,74.1371 283.389,70.9705 294.5,76C 315.56,105.972 336.227,136.139 356.5,166.5 Z"/></g>
<g><path style="opacity:1" fill="#7fb88a" d="M 358.5,85.5 C 358.667,113.169 358.5,140.835 358,168.5C 357.283,167.956 356.783,167.289 356.5,166.5C 357.167,139.5 357.833,112.5 358.5,85.5 Z"/></g>
<g><path style="opacity:1" fill="#cfbd6b" d="M 301.5,151.5 C 300.833,172.5 300.167,193.5 299.5,214.5C 299.167,193.156 299.5,171.823 300.5,150.5C 301.107,150.624 301.44,150.957 301.5,151.5 Z"/></g>
<g><path style="opacity:1" fill="#e5f1f0" d="M 469.5,385.5 C 469.5,396.833 469.5,408.167 469.5,419.5C 338.999,419.167 208.666,419.5 78.5,420.5C 76.8095,432.051 76.1428,443.718 76.5,455.5C 69.825,455.666 63.1583,455.5 56.5,455C 50.1121,449.277 45.2788,442.443 42,434.5C 34.6404,416.204 37.807,400.204 51.5,386.5C 190.832,385.5 330.165,385.167 469.5,385.5 Z"/></g>
<g><path style="opacity:1" fill="#d7eae8" d="M 60.5,397.5 C 190.167,397.333 319.834,397.5 449.5,398C 452.167,400.667 452.167,403.333 449.5,406C 319.833,406.667 190.167,406.667 60.5,406C 58.354,405.521 57.354,404.188 57.5,402C 57.5572,399.791 58.5572,398.291 60.5,397.5 Z"/></g>
<g><path style="opacity:1" fill="#df5d63" d="M 78.5,420.5 C 103.842,420.167 129.175,420.5 154.5,421.5C 155.189,423.444 155.689,425.444 156,427.5C 156.5,436.827 156.666,446.161 156.5,455.5C 156.5,456.833 156.5,458.167 156.5,459.5C 155.963,465.516 155.297,471.516 154.5,477.5C 151.731,489.481 147.397,500.815 141.5,511.5C 140.5,511.5 139.5,511.5 138.5,511.5C 134.897,506.558 130.897,501.892 126.5,497.5C 125.243,494.573 123.243,492.239 120.5,490.5C 119.185,489.524 117.852,488.524 116.5,487.5C 115.482,488.193 114.482,488.859 113.5,489.5C 111.413,490.585 110.08,492.251 109.5,494.5C 104.128,499.87 99.1281,505.537 94.5,511.5C 93.5,511.5 92.5,511.5 91.5,511.5C 85.9232,501.105 81.9232,490.105 79.5,478.5C 78.0906,470.892 77.0906,463.225 76.5,455.5C 76.1428,443.718 76.8095,432.051 78.5,420.5 Z"/></g>
<g><path style="opacity:1" fill="#d5e9e7" d="M 469.5,385.5 C 469.833,385.5 470.167,385.5 470.5,385.5C 470.5,408.833 470.5,432.167 470.5,455.5C 470.167,455.5 469.833,455.5 469.5,455.5C 365.167,455.5 260.833,455.5 156.5,455.5C 156.666,446.161 156.5,436.827 156,427.5C 155.689,425.444 155.189,423.444 154.5,421.5C 129.175,420.5 103.842,420.167 78.5,420.5C 208.666,419.5 338.999,419.167 469.5,419.5C 469.5,408.167 469.5,396.833 469.5,385.5 Z"/></g>
<g><path style="opacity:1" fill="#c3ddda" d="M 166.5,434.5 C 213.835,434.333 261.168,434.5 308.5,435C 310.059,437.642 309.725,439.975 307.5,442C 260.5,442.667 213.5,442.667 166.5,442C 163.914,439.506 163.914,437.006 166.5,434.5 Z"/></g>
<g><path style="opacity:1" fill="#6dc0a8" d="M 156.5,455.5 C 260.833,455.5 365.167,455.5 469.5,455.5C 365.668,456.499 261.668,456.833 157.5,456.5C 157.737,457.791 157.404,458.791 156.5,459.5C 156.5,458.167 156.5,456.833 156.5,455.5 Z"/></g>
<g><path style="opacity:0.998" fill="#53b69a" d="M 469.5,455.5 C 469.833,455.5 470.167,455.5 470.5,455.5C 475.511,455.334 480.511,455.501 485.5,456C 494.408,462.216 494.741,468.883 486.5,476C 485.167,476.333 483.833,476.667 482.5,477C 373.167,477.5 263.834,477.667 154.5,477.5C 155.297,471.516 155.963,465.516 156.5,459.5C 157.404,458.791 157.737,457.791 157.5,456.5C 261.668,456.833 365.668,456.499 469.5,455.5 Z"/></g>
<g><path style="opacity:0.016" fill="#ae7d7a" d="M 113.5,489.5 C 112.92,491.749 111.587,493.415 109.5,494.5C 110.08,492.251 111.413,490.585 113.5,489.5 Z"/></g>
<g><path style="opacity:0.024" fill="#a97c78" d="M 120.5,490.5 C 123.243,492.239 125.243,494.573 126.5,497.5C 123.757,495.761 121.757,493.427 120.5,490.5 Z"/></g>
</svg>
