<?xml version="1.0" encoding="UTF-8"?>
<!DOCTYPE svg PUBLIC "-//W3C//DTD SVG 1.1//EN" "http://www.w3.org/Graphics/SVG/1.1/DTD/svg11.dtd">
<svg xmlns="http://www.w3.org/2000/svg" version="1.1" width="128px" height="128px" style="shape-rendering:geometricPrecision; text-rendering:geometricPrecision; image-rendering:optimizeQuality; fill-rule:evenodd; clip-rule:evenodd" xmlns:xlink="http://www.w3.org/1999/xlink">
<g><path style="opacity:0.984" fill="#f0f0f0" d="M 51.5,-0.5 C 59.5,-0.5 67.5,-0.5 75.5,-0.5C 98.6264,4.74234 114.626,18.409 123.5,40.5C 83.5,40.5 43.5,40.5 3.5,40.5C 12.3354,18.4196 28.3354,4.75294 51.5,-0.5 Z"/></g>
<g><path style="opacity:1" fill="#acc3df" d="M 3.5,40.5 C 43.5,40.5 83.5,40.5 123.5,40.5C 124.404,41.209 124.737,42.209 124.5,43.5C 104.383,42.1782 84.0502,41.5116 63.5,41.5C 42.9498,41.5116 22.6165,42.1782 2.5,43.5C 2.26269,42.209 2.59603,41.209 3.5,40.5 Z"/></g>
<g><path style="opacity:1" fill="#0252b4" d="M 124.5,43.5 C 125.434,44.5676 125.768,45.901 125.5,47.5C 126.018,56.6576 126.685,65.6576 127.5,74.5C 127.5,74.8333 127.5,75.1667 127.5,75.5C 126.32,79.2169 124.987,82.8835 123.5,86.5C 83.5,85.1667 43.5,85.1667 3.5,86.5C 2.01312,82.8835 0.679783,79.2169 -0.5,75.5C -0.5,67.5 -0.5,59.5 -0.5,51.5C 0.5,48.8333 1.5,46.1667 2.5,43.5C 22.6165,42.1782 42.9498,41.5116 63.5,41.5C 84.0502,41.5116 104.383,42.1782 124.5,43.5 Z"/></g>
<g><path style="opacity:1" fill="#4074c2" d="M 125.5,47.5 C 126.167,48.8333 126.833,50.1667 127.5,51.5C 127.5,59.1667 127.5,66.8333 127.5,74.5C 126.685,65.6576 126.018,56.6576 125.5,47.5 Z"/></g>
<g><path style="opacity:1" fill="#a21a4e" d="M 123.5,86.5 C 123.672,87.4916 123.338,88.1583 122.5,88.5C 103.178,87.167 83.5115,86.5003 63.5,86.5C 43.4885,86.5003 23.8218,87.167 4.5,88.5C 3.66175,88.1583 3.32842,87.4916 3.5,86.5C 43.5,85.1667 83.5,85.1667 123.5,86.5 Z"/></g>
<g><path style="opacity:1" fill="#d80929" d="M 122.5,88.5 C 115.704,105.461 103.704,117.295 86.5,124C 82.3773,125.192 78.3773,126.359 74.5,127.5C 67.1667,127.5 59.8333,127.5 52.5,127.5C 35.4779,124.065 21.6445,115.398 11,101.5C 8.29506,97.4235 6.12839,93.0901 4.5,88.5C 23.8218,87.167 43.4885,86.5003 63.5,86.5C 83.5115,86.5003 103.178,87.167 122.5,88.5 Z"/></g>
</svg>
